<svg width="100" height="100" viewBox="0 0 261 261" fill="none" xmlns="http://www.w3.org/2000/svg">
<g style="mix-blend-mode:darken" filter="url(#filter0_d_643_1309)">
<path d="M256.5 126.5C256.5 196.088 200.088 252.5 130.5 252.5C60.9121 252.5 4.5 196.088 4.5 126.5C4.5 56.9121 60.9121 0.5 130.5 0.5C200.088 0.5 256.5 56.9121 256.5 126.5Z" fill="#DF5A22"/>
</g>
<path d="M113.558 150V102.64H131.798C134.827 102.64 137.408 103.195 139.542 104.304C141.718 105.371 143.382 106.821 144.534 108.656C145.686 110.448 146.262 112.411 146.262 114.544C146.262 116.891 145.835 118.789 144.982 120.24C144.128 121.691 143.168 122.8 142.102 123.568C141.035 124.293 140.182 124.784 139.542 125.04V125.424C140.566 125.723 141.739 126.299 143.062 127.152C144.427 127.963 145.6 129.136 146.582 130.672C147.563 132.208 148.054 134.213 148.054 136.688C148.054 138.864 147.52 140.976 146.454 143.024C145.387 145.072 143.702 146.757 141.398 148.08C139.094 149.36 136.043 150 132.246 150H113.558ZM131.542 108.08H119.83V123.184H131.542C133.59 123.184 135.232 122.821 136.47 122.096C137.75 121.371 138.667 120.432 139.222 119.28C139.819 118.085 140.118 116.869 140.118 115.632C140.118 114.352 139.819 113.136 139.222 111.984C138.667 110.832 137.75 109.893 136.47 109.168C135.232 108.443 133.59 108.08 131.542 108.08ZM132.054 128.24H119.83V144.56H132.054C134.4 144.56 136.278 144.176 137.686 143.408C139.094 142.597 140.118 141.573 140.757 140.336C141.44 139.056 141.782 137.733 141.782 136.368C141.782 135.003 141.44 133.701 140.757 132.464C140.118 131.227 139.094 130.224 137.686 129.456C136.278 128.645 134.4 128.24 132.054 128.24Z" fill="white"/>
<defs>
<filter id="filter0_d_643_1309" x="0.5" y="0.5" width="260" height="260" filterUnits="userSpaceOnUse" color-interpolation-filters="sRGB">
<feFlood flood-opacity="0" result="BackgroundImageFix"/>
<feColorMatrix in="SourceAlpha" type="matrix" values="0 0 0 0 0 0 0 0 0 0 0 0 0 0 0 0 0 0 127 0" result="hardAlpha"/>
<feOffset dy="4"/>
<feGaussianBlur stdDeviation="2"/>
<feComposite in2="hardAlpha" operator="out"/>
<feColorMatrix type="matrix" values="0 0 0 0 0 0 0 0 0 0 0 0 0 0 0 0 0 0 0.25 0"/>
<feBlend mode="normal" in2="BackgroundImageFix" result="effect1_dropShadow_643_1309"/>
<feBlend mode="normal" in="SourceGraphic" in2="effect1_dropShadow_643_1309" result="shape"/>
</filter>
</defs>
</svg>
