<svg width="24" height="24" viewBox="0 0 24 24" fill="none" xmlns="http://www.w3.org/2000/svg">
<path fill-rule="evenodd" clip-rule="evenodd" d="M16.25 7C16.25 7.414 15.914 7.75 15.5 7.75C15.086 7.75 14.75 7.414 14.75 7V5.5C14.75 3.981 13.519 2.75 12 2.75C10.481 2.75 9.25 3.981 9.25 5.5V7C9.25 7.414 8.914 7.75 8.5 7.75C8.086 7.75 7.75 7.414 7.75 7V5.5C7.75 3.153 9.653 1.25 12 1.25C14.347 1.25 16.25 3.153 16.25 5.5V7Z" fill="#949494"/>
<path fill-rule="evenodd" clip-rule="evenodd" d="M19.342 8.35L20.142 20.35C20.183 20.972 19.965 21.582 19.54 22.037C19.114 22.492 18.519 22.75 17.897 22.75H6.103C5.481 22.75 4.886 22.492 4.46 22.037C4.035 21.582 3.817 20.972 3.858 20.35L4.658 8.35C4.737 7.168 5.719 6.25 6.903 6.25H17.097C18.281 6.25 19.263 7.168 19.342 8.35ZM14.486 10.678C14.044 11.607 13.097 12.25 12 12.25C10.903 12.25 9.956 11.607 9.514 10.678C9.337 10.304 8.889 10.145 8.515 10.323C8.141 10.5 7.982 10.948 8.159 11.322C8.841 12.758 10.305 13.75 12 13.75C13.695 13.75 15.159 12.758 15.841 11.322C16.018 10.948 15.859 10.5 15.485 10.323C15.111 10.145 14.663 10.304 14.486 10.678Z" fill="#949494"/>
</svg>
