<svg width="24" height="24" viewBox="0 0 24 24" fill="none" xmlns="http://www.w3.org/2000/svg">
<path d="M12 20.25C11.9037 20.25 11.8075 20.2251 11.7212 20.1751C11.6276 20.121 9.40216 18.8257 7.14481 16.874C5.8069 15.7173 4.73892 14.57 3.97061 13.464C2.97638 12.033 2.47641 10.6564 2.48447 9.37265C2.49391 7.87883 3.02764 6.47398 3.98745 5.41687C4.96347 4.34194 6.26599 3.75 7.65515 3.75C9.4355 3.75 11.0632 4.74973 12 6.33343C12.9368 4.74977 14.5646 3.75 16.3449 3.75C17.6573 3.75 18.9095 4.28411 19.8708 5.25396C20.9259 6.31827 21.5253 7.82208 21.5155 9.37973C21.5074 10.6613 20.9981 12.0357 20.0016 13.4648C19.2309 14.5702 18.1645 15.717 16.8318 16.8733C14.5827 18.8248 12.3733 20.1201 12.2803 20.1743C12.1936 20.2247 12.0968 20.25 12 20.25Z" fill="#949494"/>
</svg>
